# xmcd
# 
# Track frame offsets:
#     150
#     23409
#     43274
#     56564
#     88818
#     104889
#     120717
#     138239
#     154916
#     202206
#     227530
#     249175
# 
# Disc length: 3550
# 
# Revision: 1
# Processed by: cddbd v1.5.2PL0 Copyright (c) Steve Scherf et al.
# Submitted via: fre:ac v1.0.17
# 
DISCID=a40ddc0c
DTITLE=Prigent Denez - Ul Liorzh Vurzhudus
DYEAR=2015
DGENRE=Celtic
TTITLE0=Krediñ 'Raen
TTITLE1=Beajet 'M Eus
TTITLE2=An Teodoù Fall
TTITLE3=An Tri Amourouz
TTITLE4=An Old Story
TTITLE5=Peñse Nedeleg
TTITLE6=Eostig Kerchagrin
TTITLE7=An Trucher Hag An Ankoù
TTITLE8=An Tri Seblant
TTITLE9=Gwechall Gozh
TTITLE10=Ar Binioù Skornet
TTITLE11=Before Dawn
EXTD=
EXTT0=
EXTT1=
EXTT2=
EXTT3=
EXTT4=
EXTT5=
EXTT6=
EXTT7=
EXTT8=
EXTT9=
EXTT10=
EXTT11=
PLAYORDER=
